<?xml version="1.0" encoding="iso-8859-1"?>
<!-- Generator: Adobe Illustrator 19.0.0, SVG Export Plug-In . SVG Version: 6.00 Build 0)  -->
<svg version="1.1" id="Layer_1" xmlns="http://www.w3.org/2000/svg" xmlns:xlink="http://www.w3.org/1999/xlink" x="0px" y="0px"
	 viewBox="0 0 512 512" style="enable-background:new 0 0 512 512;" xml:space="preserve">
		<path fill="currentColor" d="M451.375,211.478c-5.076-22.364-13.894-43.302-25.759-62.131l42.884-42.884l-62.963-62.964l-42.884,42.884
			c-18.829-11.864-39.767-20.684-62.131-25.758V0h-89.043v60.625c-22.364,5.076-43.302,13.894-62.131,25.759l-42.884-42.886
			l-62.964,62.964l42.884,42.884c-11.864,18.829-20.684,39.767-25.758,62.131H0v89.043h60.625
			c5.076,22.364,13.894,43.302,25.759,62.131l-42.886,42.885l62.963,62.964l42.884-42.884
			c18.829,11.865,39.768,20.684,62.131,25.759V512h89.043v-60.625c22.364-5.076,43.302-13.894,62.131-25.759l42.884,42.884
			l62.964-62.964l-42.884-42.884c11.865-18.829,20.684-39.768,25.759-62.131H512v-89.042H451.375z M256,367.304
			c-61.472,0-111.304-49.832-111.304-111.304S194.528,144.696,256,144.696S367.304,194.528,367.304,256S317.472,367.304,256,367.304
			z"/>
</svg>
